<svg xmlns="http://www.w3.org/2000/svg" viewBox="0 0 18 17.96"><defs><style>.cls-1{fill:#89939d;}</style></defs><title>Asset 8</title><g id="Layer_2" data-name="Layer 2"><g id="Layer_2-2" data-name="Layer 2"><path class="cls-1" d="M9.32,13.82V18c1.38-.19,2.58-1.63,3.34-3.75A15.56,15.56,0,0,0,9.32,13.82Z"/><path class="cls-1" d="M11.24,17.71l.08,0,.2-.06.24-.08.21-.07.23-.08.2-.08.23-.1.2-.09.22-.1.19-.11.22-.11a1.18,1.18,0,0,1,.19-.11l.2-.13.19-.12.2-.14.18-.13.19-.16.17-.13.19-.17.16-.14.19-.18.15-.15,0,0a10.2,10.2,0,0,0-2.21-.85A8,8,0,0,1,11.24,17.71Z"/><path class="cls-1" d="M13.49,13.75a11.22,11.22,0,0,1,2.44,1A9,9,0,0,0,18,9.3H14.14A16.29,16.29,0,0,1,13.49,13.75Z"/><path class="cls-1" d="M12.87,4.37a17.74,17.74,0,0,1-3.55.42V8.66H13.5A16.36,16.36,0,0,0,12.87,4.37Z"/><path class="cls-1" d="M9.32,0V4.15a16.22,16.22,0,0,0,3.34-.4C11.9,1.63,10.7.2,9.32,0Z"/><path class="cls-1" d="M9.32,9.3v3.87a17.06,17.06,0,0,1,3.55.43,16.44,16.44,0,0,0,.63-4.3Z"/><path class="cls-1" d="M13.49,4.21a16.35,16.35,0,0,1,.65,4.45H18a9,9,0,0,0-2.07-5.42A11.19,11.19,0,0,1,13.49,4.21Z"/><path class="cls-1" d="M15.47,2.72l-.15-.15-.18-.18L15,2.24l-.19-.16-.16-.14-.2-.15-.18-.13L14,1.52l-.18-.12-.21-.13-.19-.11L13.24,1l-.19-.1L12.82.83,12.63.74,12.4.64,12.2.57,12,.48l-.2-.07L11.52.34l-.2-.06-.08,0a7.94,7.94,0,0,1,2,3.34,10.74,10.74,0,0,0,2.21-.85Z"/><path class="cls-1" d="M4.51,4.21a11.19,11.19,0,0,1-2.44-1A9,9,0,0,0,0,8.66H3.86A16.35,16.35,0,0,1,4.51,4.21Z"/><path class="cls-1" d="M8.68,18V13.82a15.56,15.56,0,0,0-3.34.39C6.1,16.33,7.3,17.77,8.68,18Z"/><path class="cls-1" d="M5.13,13.6a17.06,17.06,0,0,1,3.55-.43V9.3H4.5A16.44,16.44,0,0,0,5.13,13.6Z"/><path class="cls-1" d="M8.68,0C7.3.2,6.1,1.63,5.34,3.75a16.22,16.22,0,0,0,3.34.4Z"/><path class="cls-1" d="M8.68,8.66V4.79a17.74,17.74,0,0,1-3.55-.42A16.36,16.36,0,0,0,4.5,8.66Z"/><path class="cls-1" d="M6.48.34,6.24.41,6,.48,5.8.56,5.6.64l-.23.1-.2.09L5,.94,4.76,1l-.22.12-.19.11a1.37,1.37,0,0,0-.2.13L4,1.52l-.2.14-.18.13-.19.15-.17.14L3,2.24l-.17.15-.18.17-.15.16,0,0a10.74,10.74,0,0,0,2.21.85A7.88,7.88,0,0,1,6.76.26l-.08,0Z"/><path class="cls-1" d="M2.53,15.24l.15.16.18.17.17.15.19.16.16.14.2.15.18.13.2.15.18.12.21.13a1.18,1.18,0,0,1,.19.11l.22.12L5,17l.23.1.19.09.23.1.2.08.24.08.2.07.24.08.2.05.08,0a7.9,7.9,0,0,1-2-3.33,10.71,10.71,0,0,0-2.21.84Z"/><path class="cls-1" d="M4.51,13.75A16.29,16.29,0,0,1,3.86,9.3H0a9,9,0,0,0,2.07,5.43A11.22,11.22,0,0,1,4.51,13.75Z"/></g></g></svg>