<svg xmlns="http://www.w3.org/2000/svg" viewBox="0 0 18 16.31"><defs><style>.cls-1{opacity:0.56;}.cls-2{fill:#fff;}</style></defs><title>Asset 45</title><g id="Layer_2" data-name="Layer 2"><g id="Layer_2-2" data-name="Layer 2"><g id="ic_homewhite" class="cls-1"><path class="cls-2" d="M17.81,7.45,9.37.14a.56.56,0,0,0-.74,0l-3,2.61V1.69a1.12,1.12,0,0,0-2.25,0v3L.19,7.45a.56.56,0,0,0,.74.85L9,1.31l8.07,7a.56.56,0,0,0,.74-.85Z"/><path class="cls-2" d="M9.71,4.19a1.12,1.12,0,0,0-1.43,0L2.66,8.81a1.12,1.12,0,0,0-.41.87v5.51a1.13,1.13,0,0,0,1.12,1.12H6.75V10.69h4.5v5.62h3.37a1.13,1.13,0,0,0,1.12-1.12V9.68a1.12,1.12,0,0,0-.41-.87Z"/></g></g></g></svg>