<svg xmlns="http://www.w3.org/2000/svg" viewBox="0 0 18 18"><defs><style>.cls-1{opacity:0.56;}.cls-2{fill:#fff;}</style></defs><title>Asset 63</title><g id="Layer_2" data-name="Layer 2"><g id="Layer_2-2" data-name="Layer 2"><g id="ic_allowance" class="cls-1"><g id="do-not-disturb"><path class="cls-2" d="M9,0a9,9,0,1,0,9,9A9,9,0,0,0,9,0ZM1.8,9A7.22,7.22,0,0,1,9,1.8a7.09,7.09,0,0,1,4.41,1.53L3.33,13.41A7.09,7.09,0,0,1,1.8,9ZM9,16.2a7.09,7.09,0,0,1-4.41-1.53L14.67,4.59A7.09,7.09,0,0,1,16.2,9,7.22,7.22,0,0,1,9,16.2Z"/></g></g></g></g></svg>