<svg xmlns="http://www.w3.org/2000/svg" viewBox="0 0 22.41 20"><defs><style>.cls-1{fill:#a2aab2;}</style></defs><title>Asset 14</title><g id="Layer_2" data-name="Layer 2"><g id="Layer_2-2" data-name="Layer 2"><polygon class="cls-1" points="7.21 18.4 7.21 17.42 2.34 18.5 2.34 19.35 16.61 19.35 16.61 18.52 13.32 16.54 7.21 18.4"/><polygon class="cls-1" points="10.83 16.61 7.87 17.27 7.87 17.52 10.83 16.61"/><polygon class="cls-1" points="10.83 16.61 7.87 17.52 7.87 17.27 7.21 17.42 7.21 18.4 13.32 16.54 12.74 16.19 10.83 16.61"/><path class="cls-1" d="M22.09,19.35H19.32V2.5L15.16,0,7.21,2.42v2.2l.66-.15V2.9L15.07.71l3.6,2.16V20h3.42a.32.32,0,0,0,.32-.33A.32.32,0,0,0,22.09,19.35Z"/><polygon class="cls-1" points="4.23 13.54 7.21 12.88 7.21 11.6 4.23 12.26 4.23 10.98 7.21 10.32 7.21 9.04 4.23 9.71 4.23 8.43 7.21 7.76 7.21 5.28 2.34 6.37 2.34 14.49 4.23 14.02 4.23 13.54"/><polygon class="cls-1" points="10.85 6.96 10.85 8.23 7.87 8.9 7.87 10.18 10.85 9.51 10.85 10.79 7.87 11.45 7.87 12.73 10.85 12.07 10.85 12.35 12.2 12.01 12.74 12.34 12.74 4.06 7.87 5.14 7.87 7.62 10.85 6.96"/><polygon class="cls-1" points="7.21 10.32 7.87 10.18 7.87 8.9 7.21 9.04 7.21 10.32"/><polygon class="cls-1" points="7.21 12.88 7.87 12.73 7.87 11.45 7.21 11.6 7.21 12.88"/><polygon class="cls-1" points="7.21 7.76 7.87 7.62 7.87 5.14 7.21 5.28 7.21 7.76"/><polygon class="cls-1" points="7.21 14.15 4.23 14.82 4.23 14.02 2.34 14.49 2.34 18.5 7.21 17.42 7.21 14.15"/><polygon class="cls-1" points="7.87 14.01 7.87 17.27 10.83 16.61 12.74 16.03 12.74 12.34 12.2 12.01 10.85 12.35 10.85 13.35 7.87 14.01"/><polygon class="cls-1" points="12.74 16.19 12.74 16.03 10.83 16.61 12.74 16.19"/><polygon class="cls-1" points="7.87 14.01 7.21 14.15 7.21 17.42 7.87 17.27 7.87 14.01"/><polygon class="cls-1" points="16.61 14.67 16.61 6.39 12.74 4.06 12.74 12.34 16.61 14.67"/><polygon class="cls-1" points="12.74 16.03 15.02 15.34 15.21 15.96 13.32 16.54 16.61 18.52 16.61 14.67 12.74 12.34 12.74 16.03"/><polygon class="cls-1" points="13.32 16.54 15.21 15.96 15.02 15.34 12.74 16.03 12.74 16.19 13.32 16.54"/><path class="cls-1" d="M2.34,19.67v-.32h-2a.32.32,0,0,0-.33.32A.33.33,0,0,0,.33,20H16.61v-.33H2.34Z"/><polygon class="cls-1" points="2.34 19.67 12.74 19.67 16.61 19.67 16.61 19.35 2.34 19.35 2.34 19.67"/></g></g></svg>