<svg xmlns="http://www.w3.org/2000/svg" viewBox="0 0 18 16.13"><defs><style>.cls-1{fill:#89939d;}</style></defs><title>Asset 5</title><g id="Layer_2" data-name="Layer 2"><g id="Layer_2-2" data-name="Layer 2"><path class="cls-1" d="M17.94,9.92a.19.19,0,0,0-.17-.06L.19,11.46a.21.21,0,0,0-.15.09.17.17,0,0,0,0,.17c.28,1.12,3.23,2.53,4.2,2.44a2.66,2.66,0,0,0,1-.32,3.69,3.69,0,0,1,1.89-.46A3.69,3.69,0,0,1,9,13.84a2.7,2.7,0,0,0,1.39.34,3.07,3.07,0,0,0,1.39-.34,3.69,3.69,0,0,1,1.89-.46h.19l.07,0c2.45-.85,3.95-2.08,4-3.29A.23.23,0,0,0,17.94,9.92Z"/><path class="cls-1" d="M7.8,0a.22.22,0,0,0-.23,0A.22.22,0,0,0,7.5.27c.14.53.41,1.6.62,2.9a19.65,19.65,0,0,1,.2,6.19.23.23,0,0,0,0,.18.2.2,0,0,0,.16.07h0L14.89,9a.26.26,0,0,0,.16-.09.28.28,0,0,0,0-.18A13.59,13.59,0,0,0,13.71,5.6,15,15,0,0,0,7.8,0Z"/><path class="cls-1" d="M2.9,10.12l3.94-.35A.22.22,0,0,0,7,9.59a22.68,22.68,0,0,0-.21-5.76.21.21,0,0,0-.34-.14A10.67,10.67,0,0,0,2.67,9.87a.25.25,0,0,0,.05.19.24.24,0,0,0,.16.07Z"/><path class="cls-1" d="M12.32,15.67a2.66,2.66,0,0,1,1.38-.34,2.67,2.67,0,0,1,1.39.34,3.74,3.74,0,0,0,1.9.46V15a2.67,2.67,0,0,1-1.39-.34,3.74,3.74,0,0,0-1.9-.46,3.73,3.73,0,0,0-1.89.46,2.67,2.67,0,0,1-1.39.34A2.7,2.7,0,0,1,9,14.64a3.73,3.73,0,0,0-1.89-.46,3.73,3.73,0,0,0-1.89.46A2.67,2.67,0,0,1,3.86,15a2.67,2.67,0,0,1-1.39-.34,3.73,3.73,0,0,0-1.89-.46v1.15A2.67,2.67,0,0,1,2,15.67a3.73,3.73,0,0,0,1.89.46,3.73,3.73,0,0,0,1.89-.46,2.67,2.67,0,0,1,1.39-.34,2.67,2.67,0,0,1,1.39.34,3.73,3.73,0,0,0,1.89.46A3.77,3.77,0,0,0,12.32,15.67Z"/></g></g></svg>