<svg xmlns="http://www.w3.org/2000/svg" viewBox="0 0 18 13.51"><defs><style>.cls-1{fill:#89939d;}</style></defs><title>Asset 2</title><g id="Layer_2" data-name="Layer 2"><g id="Layer_2-2" data-name="Layer 2"><path class="cls-1" d="M7.39,13.49a.27.27,0,0,0,.23,0,.38.38,0,0,0,.15-.2L11.44.58a.28.28,0,0,0,0-.25.32.32,0,0,0-.19-.15L10.61,0a.31.31,0,0,0-.23,0,.36.36,0,0,0-.15.19L6.56,12.93a.25.25,0,0,0,0,.24.26.26,0,0,0,.19.15Z"/><path class="cls-1" d="M5.72,2.66a.35.35,0,0,0-.09-.23l-.5-.49a.32.32,0,0,0-.22-.1.34.34,0,0,0-.23.1L.1,6.53a.28.28,0,0,0-.1.22A.3.3,0,0,0,.1,7l4.58,4.58a.3.3,0,0,0,.23.1.28.28,0,0,0,.22-.1l.5-.49a.32.32,0,0,0,.09-.23.31.31,0,0,0-.09-.22L1.76,6.75,5.63,2.89A.33.33,0,0,0,5.72,2.66Z"/><path class="cls-1" d="M13.32,1.94a.34.34,0,0,0-.23-.1.32.32,0,0,0-.22.1l-.5.49a.35.35,0,0,0-.09.23.33.33,0,0,0,.09.23l3.87,3.86-3.87,3.87a.31.31,0,0,0-.09.22.32.32,0,0,0,.09.23l.5.49a.28.28,0,0,0,.22.1.3.3,0,0,0,.23-.1L17.9,7a.3.3,0,0,0,.1-.23.28.28,0,0,0-.1-.22Z"/></g></g></svg>