<svg xmlns="http://www.w3.org/2000/svg" viewBox="0 0 18 17.86"><defs><style>.cls-1{opacity:0.56;}.cls-2{fill:#fff;}</style></defs><title>Asset 59</title><g id="Layer_2" data-name="Layer 2"><g id="Layer_2-2" data-name="Layer 2"><g class="cls-1"><g id="ic_race"><path class="cls-2" d="M7.72,8.93a1.41,1.41,0,0,0,2.67.64h0L13,4.92,8.44,7.7h0A1.41,1.41,0,0,0,7.72,8.93Z"/><path class="cls-2" d="M14.83,2.2A9,9,0,0,0,9.37,0V2.15a6.09,6.09,0,0,1,3.89,1.56Z"/><path class="cls-2" d="M15.84,8.26H18a8.64,8.64,0,0,0-2.28-5.34L14.19,4.43A6.86,6.86,0,0,1,15.84,8.26Z"/><path class="cls-2" d="M15.85,9.33a6.82,6.82,0,0,1-6.79,6.39,6.91,6.91,0,0,1-6.92-6.8A6.94,6.94,0,0,1,8.3,2.15V0A8.9,8.9,0,0,0,0,8.93a9,9,0,0,0,9,8.93,9.1,9.1,0,0,0,9-8.53H15.85Z"/></g></g></g></g></svg>