<svg xmlns="http://www.w3.org/2000/svg" viewBox="0 0 18 17.86"><defs><style>.cls-1{fill:#89939d;}</style></defs><title>Asset 3</title><g id="Layer_2" data-name="Layer 2"><g id="Layer_2-2" data-name="Layer 2"><path class="cls-1" d="M7.72,8.93a1.41,1.41,0,0,0,2.67.65h0L13,4.92,8.44,7.7h0A1.43,1.43,0,0,0,7.72,8.93Z"/><path class="cls-1" d="M14.83,2.2A9,9,0,0,0,9.37,0V2.15a6.12,6.12,0,0,1,3.89,1.56Z"/><path class="cls-1" d="M18,8.26a8.65,8.65,0,0,0-2.28-5.33l-1.52,1.5a7,7,0,0,1,1.65,3.83Z"/><path class="cls-1" d="M15.85,9.33a6.82,6.82,0,0,1-6.79,6.39,6.9,6.9,0,0,1-6.92-6.8A6.94,6.94,0,0,1,8.3,2.15V0A8.94,8.94,0,0,0,9,17.86a9.1,9.1,0,0,0,9-8.53Z"/></g></g></svg>