<svg xmlns="http://www.w3.org/2000/svg" viewBox="0 0 18 20.03"><defs><style>.cls-1{fill:#89939d;}</style></defs><title>Asset 4</title><g id="Layer_2" data-name="Layer 2"><g id="Layer_2-2" data-name="Layer 2"><path class="cls-1" d="M7.73,10.63A5.32,5.32,0,1,0,2.42,5.32,5.31,5.31,0,0,0,7.73,10.63Z"/><path class="cls-1" d="M2.13,10.31A10.47,10.47,0,0,0,0,15.83a2.12,2.12,0,0,0,.68,1.7c.87.61,2.75,1.39,6.65,1.39a25.8,25.8,0,0,0,3.45-.21,4.46,4.46,0,0,1-.61-2.23,4.38,4.38,0,0,1,4.27-4.39,9.07,9.07,0,0,0-1.08-1.79,4.09,4.09,0,0,0-1.12-.88,6,6,0,0,1-9,0A3.71,3.71,0,0,0,2.13,10.31Z"/><path class="cls-1" d="M14.44,12.92A3.56,3.56,0,1,0,18,16.47,3.56,3.56,0,0,0,14.44,12.92Zm1.76,4.21H12.63a.41.41,0,1,1,0-.82H16.2a.41.41,0,0,1,.41.41A.41.41,0,0,1,16.2,17.13Z"/></g></g></svg>