<svg xmlns="http://www.w3.org/2000/svg" viewBox="0 0 18 18"><defs><style>.cls-1{fill:#89939d;}</style></defs><title>Asset 6</title><g id="Layer_2" data-name="Layer 2"><g id="Layer_2-2" data-name="Layer 2"><path class="cls-1" d="M9,0a9,9,0,1,0,9,9A9,9,0,0,0,9,0ZM2.44,12.39c0-2.81,2.47-2.81,3-3.55l.06-.33A2.68,2.68,0,0,1,4.21,6.08,2.41,2.41,0,0,1,6.32,3.45a2.2,2.2,0,0,1,2,1.75,3.2,3.2,0,0,0-2,3.13,3.48,3.48,0,0,0,1.08,2.59L7,11.08a4.65,4.65,0,0,0-1.83,1.31ZM9,14.65H5.13c0-2.81,2.47-2.81,3-3.55l.06-.33A2.71,2.71,0,0,1,6.89,8.33,2.42,2.42,0,0,1,9,5.71a2.42,2.42,0,0,1,2.11,2.62,2.71,2.71,0,0,1-1.3,2.43l.07.38c.6.7,3,.74,3,3.51Zm3.78-2.26h0A4.65,4.65,0,0,0,11,11.08l-.33-.16a3.48,3.48,0,0,0,1.08-2.59,3.2,3.2,0,0,0-2-3.13,2.2,2.2,0,0,1,2-1.75,2.41,2.41,0,0,1,2.11,2.63A2.7,2.7,0,0,1,12.5,8.5l.07.38c.6.7,3,.75,3,3.51Z"/></g></g></svg>