<?xml version="1.0" encoding="utf-8"?>
<svg xmlns="http://www.w3.org/2000/svg" viewBox="0 0 24 24" fill="#000000"><path d="M 12 3 C 9.8027056 3 8 4.8027056 8 7 C 8 9.1972944 9.8027056 11 12 11 C 14.197294 11 16 9.1972944 16 7 C 16 4.8027056 14.197294 3 12 3 z M 12 5 C 13.116414 5 14 5.8835859 14 7 C 14 8.1164141 13.116414 9 12 9 C 10.883586 9 10 8.1164141 10 7 C 10 5.8835859 10.883586 5 12 5 z M 15 13 L 15 15 L 14 15 C 13.45 15 13 15.45 13 16 L 13 23 C 13 23.55 13.45 24 14 24 L 23 24 C 23.55 24 24 23.55 24 23 L 24 16 C 24 15.45 23.55 15 23 15 L 22 15 L 22 13 L 20 13 L 20 15 L 17 15 L 17 13 L 15 13 z M 11 14.048828 C 7.761 14.320828 3 15.835 3 18.5 L 3 21 L 11 21 L 11 19 L 5 19 L 5 18.5 C 5 17.718 8.001 16.323781 11 16.050781 L 11 14.048828 z M 15 18 L 22 18 L 22 22 L 15 22 L 15 18 z M 16 19 L 16 21 L 18 21 L 18 19 L 16 19 z M 19 19 L 19 21 L 21 21 L 21 19 L 19 19 z" fill="#000000"/></svg>
