<?xml version="1.0" encoding="utf-8"?>
<svg xmlns="http://www.w3.org/2000/svg" viewBox="0 0 24 24" fill="#000000"><path d="M 6 0 C 2.7 0 0 2.7 0 6 C 0 9.3 2.7 12 6 12 C 9.3 12 12 9.3 12 6 C 12 2.7 9.3 0 6 0 z M 6 2 C 8.2 2 10 3.8 10 6 C 10 8.2 8.2 10 6 10 C 3.8 10 2 8.2 2 6 C 2 3.8 3.8 2 6 2 z M 16 2 L 16 4 L 13.738281 4 C 13.903281 4.64 14 5.308 14 6 L 19 6 L 19 8 L 13.738281 8 C 13.555281 8.71 13.280875 9.381 12.921875 10 L 19 10 L 19.001953 20 L 5 20 L 5 13.931641 C 4.301 13.844641 3.631 13.668109 3 13.412109 L 3 20 C 3 21.103 3.897 22 5 22 L 19 22 C 20.103 22 21 21.103 21 20 L 21 6 C 21 4.897 20.103 4 19 4 L 18 4 L 18 2 L 16 2 z M 6.9003906 3.1992188 L 5.1992188 6.0996094 L 7.4003906 8.3007812 L 8.3007812 7.3007812 L 6.8007812 5.9003906 L 8 3.8007812 L 6.9003906 3.1992188 z" fill="#000000"/></svg>
