<svg xmlns="http://www.w3.org/2000/svg" viewBox="0 0 18 20.03"><defs><style>.cls-1{opacity:0.56;}.cls-2{fill:#fff;}</style></defs><title>Asset 55</title><g id="Layer_2" data-name="Layer 2"><g id="Layer_2-2" data-name="Layer 2"><g id="ic_resign" class="cls-1"><path class="cls-2" d="M2.42,5.32A5.31,5.31,0,1,0,7.73,0,5.31,5.31,0,0,0,2.42,5.32Z"/><path class="cls-2" d="M.68,17.53c.87.61,2.74,1.39,6.65,1.39a25.84,25.84,0,0,0,3.45-.21,4.38,4.38,0,0,1,3.66-6.62,9.18,9.18,0,0,0-1.09-1.78,3.85,3.85,0,0,0-1.11-.88,6,6,0,0,1-9,0,3.85,3.85,0,0,0-1.08.89A10.42,10.42,0,0,0,0,15.83,2.15,2.15,0,0,0,.68,17.53Z"/><path class="cls-2" d="M14.44,12.92A3.56,3.56,0,1,0,18,16.47,3.56,3.56,0,0,0,14.44,12.92Zm1.76,4.21H12.63a.41.41,0,1,1,0-.82H16.2a.41.41,0,1,1,0,.82Z"/></g></g></g></svg>