<svg xmlns="http://www.w3.org/2000/svg" viewBox="0 0 20.54 20.54"><defs><style>.cls-1{fill:#2c3e50;}</style></defs><title>Asset 70</title><g id="Layer_2" data-name="Layer 2"><g id="Layer_2-2" data-name="Layer 2"><path id="ic_earth" class="cls-1" d="M9.7,20.54l-.12,0A10.29,10.29,0,0,1,0,11v-.17H0V9.7l0-.11A10.29,10.29,0,0,1,9.59,0h1.26L11,0a10.29,10.29,0,0,1,9.56,9.56v.17h0v1.08l0,.12A10.29,10.29,0,0,1,11,20.52H9.7Zm1.08-1.06.23-.06c1.46-.39,2.75-1.93,3.54-4.21l.08-.24H10.79ZM6,15.21c.79,2.28,2.08,3.82,3.54,4.21l.23.06V15H5.9Zm-3.51,0a9.27,9.27,0,0,0,3.8,3.36l.22-.27a10.8,10.8,0,0,1-1.61-3.24l0-.13H2.3Zm13.17-.15A10.88,10.88,0,0,1,14,18.34l.22.27a9.27,9.27,0,0,0,3.8-3.36l.18-.28H15.69Zm.7-4.13A16.38,16.38,0,0,1,16,13.72l0,.22h2.8l0-.11A9.11,9.11,0,0,0,19.48,11v-.2H16.35Zm-5.56,3h4.13l0-.14A15.63,15.63,0,0,0,15.32,11v-.19H10.79ZM5.23,11a15.74,15.74,0,0,0,.37,2.82l0,.14H9.76V10.79H5.22ZM1.06,11a9.14,9.14,0,0,0,.68,2.84l0,.11h2.8l0-.22A16.33,16.33,0,0,1,4.2,11v-.17H1ZM16,6.82a16.39,16.39,0,0,1,.34,2.76v.17H19.5v-.2a9.16,9.16,0,0,0-.68-2.84l0-.11H16ZM10.79,9.76h4.54V9.57A15.87,15.87,0,0,0,15,6.75l0-.14H10.79Zm-5.2-3a15.76,15.76,0,0,0-.37,2.82v.19H9.76V6.6H5.62Zm-3.85,0a9.15,9.15,0,0,0-.68,2.84v.2H4.19V9.58a16.33,16.33,0,0,1,.34-2.76l0-.22H1.78ZM14,2.21a10.8,10.8,0,0,1,1.61,3.24l0,.13h2.55l-.18-.28a9.27,9.27,0,0,0-3.8-3.36ZM10.79,5.58h3.85l-.08-.24C13.77,3.05,12.48,1.52,11,1.13l-.23-.06ZM9.53,1.13C8.07,1.52,6.78,3,6,5.33l-.08.24H9.76V1.07Zm-3.24.81a9.27,9.27,0,0,0-3.8,3.36l-.18.28H4.86l0-.13A10.83,10.83,0,0,1,6.51,2.21Z"/></g></g></svg>