<svg xmlns="http://www.w3.org/2000/svg" viewBox="0 0 18 18"><defs><style>.cls-1{fill:#2c3e50;}</style></defs><title>Asset 52</title><g id="Layer_2" data-name="Layer 2"><g id="Layer_2-2" data-name="Layer 2"><g id="ic_group"><path class="cls-1" d="M9,0a9,9,0,1,0,9,9A9,9,0,0,0,9,0ZM2.44,12.39c0-2.81,2.47-2.81,3-3.55l.06-.34A2.69,2.69,0,0,1,4.21,6.08,2.41,2.41,0,0,1,6.32,3.45a2.19,2.19,0,0,1,2,1.75,3.2,3.2,0,0,0-2,3.13,3.49,3.49,0,0,0,1.08,2.59L7,11.08a4.63,4.63,0,0,0-1.83,1.31H2.44ZM9,14.65H5.13c0-2.81,2.47-2.81,3-3.55l.06-.34A2.69,2.69,0,0,1,6.89,8.33,2.41,2.41,0,0,1,9,5.71a2.41,2.41,0,0,1,2.11,2.62,2.7,2.7,0,0,1-1.29,2.42l.07.38c.6.7,3,.75,3,3.51H9Zm3.78-2.26h0A4.63,4.63,0,0,0,11,11.08l-.33-.16a3.5,3.5,0,0,0,1.08-2.59,3.2,3.2,0,0,0-2-3.13,2.19,2.19,0,0,1,2-1.75,2.41,2.41,0,0,1,2.11,2.62A2.7,2.7,0,0,1,12.5,8.5l.07.38c.6.7,3,.74,3,3.51H12.81Z"/></g></g></g></svg>