<svg xmlns="http://www.w3.org/2000/svg" viewBox="0 0 18 15.82"><defs><style>.cls-1{opacity:0.56;}.cls-2{fill:#fff;}</style></defs><title>Asset 51</title><g id="Layer_2" data-name="Layer 2"><g id="Layer_2-2" data-name="Layer 2"><g id="ic_darkjob" class="cls-1"><path class="cls-2" d="M7.42,8.44h3.16V9.49H7.42Z"/><path class="cls-2" d="M14.6,9.49h-3V10a.53.53,0,0,1-.53.53H6.89A.53.53,0,0,1,6.36,10V9.49h-3A1.58,1.58,0,0,1,1.9,8.41L0,2.72V14.24a1.58,1.58,0,0,0,1.58,1.58H16.42A1.58,1.58,0,0,0,18,14.24V2.72L16.1,8.41A1.58,1.58,0,0,1,14.6,9.49Z"/><path class="cls-2" d="M11.11,0H6.89A1.58,1.58,0,0,0,5.31,1.58v.53H.91l2,6a.53.53,0,0,0,.5.36h3V7.91a.53.53,0,0,1,.53-.53h4.22a.53.53,0,0,1,.53.53v.53h3a.53.53,0,0,0,.5-.36l2-6h-4.4V1.58A1.58,1.58,0,0,0,11.11,0ZM6.36,2.11V1.58a.53.53,0,0,1,.53-.53h4.22a.53.53,0,0,1,.53.53v.53Z"/></g></g></g></svg>