<svg xmlns="http://www.w3.org/2000/svg" viewBox="0 0 18 16.13"><defs><style>.cls-1{fill:#2c3e50;}</style></defs><title>Asset 56</title><g id="Layer_2" data-name="Layer 2"><g id="Layer_2-2" data-name="Layer 2"><g id="ic_holiday"><path class="cls-1" d="M17.94,9.92a.21.21,0,0,0-.17-.06L.19,11.46a.21.21,0,0,0-.19.26c.28,1.11,3.23,2.53,4.21,2.44a2.69,2.69,0,0,0,1-.32,3.76,3.76,0,0,1,1.89-.46A3.76,3.76,0,0,1,9,13.84a2.68,2.68,0,0,0,1.39.34,3,3,0,0,0,1.39-.34,3.76,3.76,0,0,1,1.89-.46H14c2.44-.85,4-2.08,4-3.29A.21.21,0,0,0,17.94,9.92Z"/><path class="cls-1" d="M8.12,3.17a20,20,0,0,1,.19,6.19.21.21,0,0,0,.21.25h0L14.89,9a.21.21,0,0,0,.19-.27A13,13,0,0,0,13.71,5.6,15,15,0,0,0,7.8,0a.21.21,0,0,0-.3.24C7.64.8,7.91,1.87,8.12,3.17Z"/><path class="cls-1" d="M2.88,10.13h0l3.94-.36A.21.21,0,0,0,7,9.59a22.69,22.69,0,0,0-.2-5.76.21.21,0,0,0-.34-.14A10.66,10.66,0,0,0,2.67,9.87a.21.21,0,0,0,.21.25Z"/><path class="cls-1" d="M13.7,14.18a3.8,3.8,0,0,0-1.89.46,2.68,2.68,0,0,1-1.39.34A2.68,2.68,0,0,1,9,14.64a3.8,3.8,0,0,0-1.89-.46,3.8,3.8,0,0,0-1.89.46A2.68,2.68,0,0,1,3.86,15a2.68,2.68,0,0,1-1.39-.34,3.8,3.8,0,0,0-1.89-.46v1.15A2.68,2.68,0,0,1,2,15.67a3.8,3.8,0,0,0,1.89.46,3.8,3.8,0,0,0,1.89-.46,2.68,2.68,0,0,1,1.39-.34,2.68,2.68,0,0,1,1.39.34,3.8,3.8,0,0,0,1.89.46,3.8,3.8,0,0,0,1.89-.46,2.68,2.68,0,0,1,1.39-.34,2.68,2.68,0,0,1,1.39.34,3.8,3.8,0,0,0,1.89.46V15a2.68,2.68,0,0,1-1.39-.34A3.8,3.8,0,0,0,13.7,14.18Z"/></g></g></g></svg>