<svg xmlns="http://www.w3.org/2000/svg" viewBox="0 0 16 19.18"><defs><style>.cls-1{fill:#fff;}</style></defs><title>Asset 12</title><g id="Layer_2" data-name="Layer 2"><g id="Layer_2-2" data-name="Layer 2"><path class="cls-1" d="M8,9.24a4.48,4.48,0,0,0,3.27-1.36,4.47,4.47,0,0,0,1.35-3.26,4.51,4.51,0,0,0-1.35-3.27A4.51,4.51,0,0,0,8,0,4.51,4.51,0,0,0,4.73,1.35,4.51,4.51,0,0,0,3.38,4.62,4.47,4.47,0,0,0,4.73,7.88,4.48,4.48,0,0,0,8,9.24ZM5.53,2.15A3.35,3.35,0,0,1,8,1.12a3.35,3.35,0,0,1,2.47,1,3.35,3.35,0,0,1,1,2.47,3.35,3.35,0,0,1-1,2.47A3.34,3.34,0,0,1,8,8.11a3.34,3.34,0,0,1-2.47-1,3.35,3.35,0,0,1-1-2.47A3.35,3.35,0,0,1,5.53,2.15Z"/><path class="cls-1" d="M16,14.75a11.89,11.89,0,0,0-.15-1.22,9.73,9.73,0,0,0-.3-1.21,6.37,6.37,0,0,0-.5-1.14,4.2,4.2,0,0,0-.76-1,3.33,3.33,0,0,0-1.08-.69,3.9,3.9,0,0,0-1.39-.25,1.42,1.42,0,0,0-.75.32l-.78.51a4.22,4.22,0,0,1-1,.44,3.94,3.94,0,0,1-2.48,0,4.22,4.22,0,0,1-1-.44L5,9.58a1.42,1.42,0,0,0-.75-.32,3.9,3.9,0,0,0-1.39.25,3.33,3.33,0,0,0-1.08.69,4.2,4.2,0,0,0-.76,1,6.37,6.37,0,0,0-.5,1.14,9.73,9.73,0,0,0-.3,1.21A11.57,11.57,0,0,0,0,14.75c0,.36,0,.74,0,1.13a3.19,3.19,0,0,0,1,2.41,3.4,3.4,0,0,0,2.43.89h9.24a3.4,3.4,0,0,0,2.43-.89A3.19,3.19,0,0,0,16,15.88C16,15.49,16,15.11,16,14.75Zm-1.68,2.72a2.29,2.29,0,0,1-1.66.58H3.38a2.29,2.29,0,0,1-1.66-.58,2.07,2.07,0,0,1-.6-1.59c0-.36,0-.71,0-1.06a9.59,9.59,0,0,1,.14-1.09,9.87,9.87,0,0,1,.26-1.07A4.7,4.7,0,0,1,2,11.74,3.25,3.25,0,0,1,2.52,11a2.15,2.15,0,0,1,.73-.45,2.46,2.46,0,0,1,.88-.17l.22.13c.24.15.5.33.8.51a5,5,0,0,0,1.27.57,4.93,4.93,0,0,0,3.16,0A5,5,0,0,0,10.85,11l.79-.51.23-.13a2.46,2.46,0,0,1,.88.17,2,2,0,0,1,.72.45,3,3,0,0,1,.56.73,4.7,4.7,0,0,1,.41.92,9.87,9.87,0,0,1,.26,1.07,9.59,9.59,0,0,1,.14,1.09h0c0,.33,0,.69,0,1.05A2.07,2.07,0,0,1,14.28,17.47Z"/></g></g></svg>