<svg xmlns="http://www.w3.org/2000/svg" viewBox="0 0 22.91 20.5"><defs><style>.cls-1{fill:#2c3e50;}.cls-2{fill:none;stroke:#2c3e50;stroke-miterlimit:10;}</style></defs><title>Asset 68</title><g id="Layer_2" data-name="Layer 2"><g id="Layer_2-2" data-name="Layer 2"><path class="cls-1" d="M22.59,19.35H19.82V2.5L15.66,0,7.71,2.42v2.2l.65-.14V2.9L15.57.71l3.6,2.16V20h3.42a.33.33,0,1,0,0-.65Z"/><path class="cls-2" d="M8.37,5.14l-.65.14L2.84,6.37v13h-2a.33.33,0,0,0,0,.65H17.11V6.39L13.24,4.06ZM4.73,8.43l3-.66.65-.14,3-.66V8.23l-3,.66L7.71,9l-3,.66Zm0,2.56,3-.66.65-.14,3-.66v1.28l-3,.66-.65.14-3,.66Zm0,2.56,3-.66.65-.14,3-.66v1.28l-3,.66-.65.14-3,.66V13.54Z"/></g></g></svg>