<svg xmlns="http://www.w3.org/2000/svg" viewBox="0 0 18 13.51"><defs><style>.cls-1{fill:#2c3e50;}</style></defs><title>Asset 60</title><g id="Layer_2" data-name="Layer 2"><g id="Layer_2-2" data-name="Layer 2"><g id="ic_Code"><path class="cls-1" d="M11.22.18,10.61,0a.27.27,0,0,0-.23,0,.32.32,0,0,0-.15.19L6.56,12.93a.29.29,0,0,0,0,.24.32.32,0,0,0,.19.15l.61.17a.27.27,0,0,0,.23,0,.32.32,0,0,0,.15-.19L11.44.58a.29.29,0,0,0,0-.24A.32.32,0,0,0,11.22.18Z"/><path class="cls-1" d="M5.72,2.66a.31.31,0,0,0-.1-.23l-.49-.49a.31.31,0,0,0-.45,0L.1,6.53A.31.31,0,0,0,.1,7l4.58,4.58a.31.31,0,0,0,.45,0l.49-.49a.31.31,0,0,0,0-.45L1.76,6.75,5.63,2.89A.31.31,0,0,0,5.72,2.66Z"/><path class="cls-1" d="M17.9,6.53,13.32,1.94a.31.31,0,0,0-.45,0l-.49.49a.31.31,0,0,0,0,.45l3.87,3.87-3.87,3.87a.31.31,0,0,0,0,.45l.49.49a.31.31,0,0,0,.45,0L17.9,7a.31.31,0,0,0,0-.45Z"/></g></g></g></svg>