<svg xmlns="http://www.w3.org/2000/svg" viewBox="0 0 18.46 18.41"><defs><style>.cls-1{fill:#2c3e50;}</style></defs><title>Asset 71</title><g id="Layer_2" data-name="Layer 2"><g id="Layer_2-2" data-name="Layer 2"><path class="cls-1" d="M4.18,9.91a15.74,15.74,0,0,0,.37,2.82l0,.14H8.71V9.72H4.18Z"/><path class="cls-1" d="M14.65,4.51H17.2L17,4.23A9.27,9.27,0,0,0,13.22.87L13,1.14a10.8,10.8,0,0,1,1.61,3.24Z"/><path class="cls-1" d="M4.55,5.68A15.75,15.75,0,0,0,4.18,8.5v.19H8.71V5.54H4.58Z"/><path class="cls-1" d="M4.95,4.27l-.08.24H8.71V0L8.49.06C7,.45,5.73,2,4.95,4.27Z"/><path class="cls-1" d="M4.95,14.14C5.73,16.43,7,18,8.49,18.35l.23.06V13.9H4.86Z"/><path class="cls-1" d="M3.15,8.52a16.33,16.33,0,0,1,.34-2.76l0-.22H.74l0,.11A9.15,9.15,0,0,0,0,8.5v.2H3.15Z"/><path class="cls-1" d="M3.85,4.38A10.83,10.83,0,0,1,5.47,1.14L5.24.87a9.27,9.27,0,0,0-3.8,3.36l-.18.28H3.81Z"/><path class="cls-1" d="M3.49,12.65A16.33,16.33,0,0,1,3.15,9.9V9.72H0v.2A9.14,9.14,0,0,0,.7,12.76l0,.11h2.8Z"/><path class="cls-1" d="M3.81,13.9H1.26l.18.28a9.27,9.27,0,0,0,3.8,3.36l.22-.27A10.8,10.8,0,0,1,3.85,14Z"/><path class="cls-1" d="M13.91,12.73a15.63,15.63,0,0,0,.37-2.82V9.72H9.74v3.15h4.13Z"/><path class="cls-1" d="M15.3,9.9A16.38,16.38,0,0,1,15,12.65l0,.22h2.8l0-.11a9.11,9.11,0,0,0,.68-2.84v-.2H15.31Z"/><path class="cls-1" d="M17.76,5.65l0-.11h-2.8l0,.22a16.39,16.39,0,0,1,.34,2.76v.17h3.15V8.5A9.16,9.16,0,0,0,17.76,5.65Z"/><path class="cls-1" d="M14.28,8.5a15.87,15.87,0,0,0-.37-2.82l0-.14H9.74V8.69h4.54Z"/><path class="cls-1" d="M14.61,14A10.88,10.88,0,0,1,13,17.27l.22.27A9.27,9.27,0,0,0,17,14.18l.18-.28H14.65Z"/><path class="cls-1" d="M13.6,13.9H9.74v4.51l.23-.06c1.46-.39,2.75-1.93,3.54-4.21Z"/><path class="cls-1" d="M13.51,4.27C12.73,2,11.43.45,10,.06L9.74,0V4.51H13.6Z"/></g></g></svg>