<svg xmlns="http://www.w3.org/2000/svg" viewBox="0 0 18 15.82"><defs><style>.cls-1{fill:#2c3e50;}</style></defs><title>Asset 66</title><g id="Layer_2" data-name="Layer 2"><g id="Layer_2-2" data-name="Layer 2"><g id="ic_job"><polygon class="cls-1" points="10.58 8.44 7.42 8.44 7.42 9.49 10.58 9.49 10.58 8.44 10.58 8.44"/><path class="cls-1" d="M17,8.87v5.37a.58.58,0,0,1-.58.58H1.58A.58.58,0,0,1,1,14.24V8.87a2.58,2.58,0,0,0,2.4,1.62h2a1.53,1.53,0,0,0,1.45,1.05h4.22a1.53,1.53,0,0,0,1.45-1.05h2A2.58,2.58,0,0,0,17,8.87M0,2.72V14.24a1.58,1.58,0,0,0,1.58,1.58H16.42A1.58,1.58,0,0,0,18,14.24V2.72L16.1,8.41a1.58,1.58,0,0,1-1.5,1.08h-3V10a.53.53,0,0,1-.53.53H6.89A.53.53,0,0,1,6.36,10V9.49h-3A1.58,1.58,0,0,1,1.9,8.41L0,2.72Z"/><path class="cls-1" d="M15.71,3.11,14.26,7.44h-1.7a1.53,1.53,0,0,0-1.45-1.05H6.89A1.53,1.53,0,0,0,5.44,7.44H3.74L2.29,3.11H15.71M11.11,0H6.89A1.58,1.58,0,0,0,5.31,1.58v.53H.91l2,6a.53.53,0,0,0,.5.36h3V7.91a.53.53,0,0,1,.53-.53h4.22a.53.53,0,0,1,.53.53v.53h3a.53.53,0,0,0,.5-.36l2-6h-4.4V1.58A1.58,1.58,0,0,0,11.11,0ZM6.36,2.11V1.58a.53.53,0,0,1,.53-.53h4.22a.53.53,0,0,1,.53.53v.53Z"/></g></g></g></svg>