<svg xmlns="http://www.w3.org/2000/svg" viewBox="0 0 22.41 20"><defs><style>.cls-1{fill:#2c3e50;}</style></defs><title>Asset 69</title><g id="Layer_2" data-name="Layer 2"><g id="Layer_2-2" data-name="Layer 2"><path class="cls-1" d="M22.09,19.35H19.32V2.5L15.16,0,7.21,2.42v2.2l.65-.14V2.9L15.07.71l3.6,2.16V20h3.42a.33.33,0,1,0,0-.65Z"/><path class="cls-1" d="M7.87,5.14l-.65.14L2.34,6.37v13h-2a.33.33,0,0,0,0,.65H16.61V6.39L12.74,4.06ZM4.23,8.43l3-.66.65-.14,3-.66V8.23l-3,.66L7.21,9l-3,.66Zm0,2.56,3-.66.65-.14,3-.66v1.28l-3,.66-.65.14-3,.66Zm0,2.56,3-.66.65-.14,3-.66v1.28l-3,.66-.65.14-3,.66V13.54Z"/></g></g></svg>