<svg xmlns="http://www.w3.org/2000/svg" viewBox="0 0 20.54 20.54"><defs><style>.cls-1{fill:#fff;}</style></defs><title>Asset 13</title><g id="Layer_2" data-name="Layer 2"><g id="Layer_2-2" data-name="Layer 2"><path class="cls-1" d="M9.7,20.54l-.11,0A10.3,10.3,0,0,1,0,11v-.17H0V9.7l0-.11A10.3,10.3,0,0,1,9.59,0h1.25L11,0a10.3,10.3,0,0,1,9.56,9.57v.17h0v1.08l0,.12A10.3,10.3,0,0,1,11,20.52H9.7Zm1.09-1.06.22-.06c1.47-.39,2.76-1.93,3.54-4.21l.09-.24H10.79ZM6,15.21c.79,2.28,2.08,3.82,3.54,4.21l.23.06V15H5.9Zm-3.51,0a9.35,9.35,0,0,0,3.8,3.36l.23-.27a11,11,0,0,1-1.62-3.25l0-.12H2.3Zm13.17-.16A11,11,0,0,1,14,18.34l.22.27a9.28,9.28,0,0,0,3.8-3.36l.18-.28H15.69Zm.7-4.13A16.66,16.66,0,0,1,16,13.72l-.05.22h2.8l0-.11A9.06,9.06,0,0,0,19.48,11l0-.19H16.35Zm-5.56,3h4.13l0-.14A15.86,15.86,0,0,0,15.32,11v-.19H10.79ZM5.23,11a16.1,16.1,0,0,0,.36,2.82l0,.14H9.76V10.79H5.22ZM1.06,11a9.06,9.06,0,0,0,.68,2.85l0,.11h2.8l0-.22A16.66,16.66,0,0,1,4.2,11v-.17H1ZM16,6.82a16.66,16.66,0,0,1,.34,2.76v.18H19.5v-.2a9.23,9.23,0,0,0-.69-2.84l0-.12H16ZM10.79,9.76h4.54V9.57A16.3,16.3,0,0,0,15,6.75l0-.15H10.79Zm-5.2-3a15.86,15.86,0,0,0-.36,2.82v.19H9.76V6.6H5.62Zm-3.85,0a8.94,8.94,0,0,0-.68,2.84l0,.2H4.19V9.58a16.66,16.66,0,0,1,.33-2.76l0-.22H1.78ZM14,2.21a11,11,0,0,1,1.61,3.24l0,.13h2.55l-.18-.29a9.35,9.35,0,0,0-3.8-3.36ZM10.79,5.58h3.85l-.09-.25c-.78-2.28-2.07-3.81-3.54-4.2l-.22-.06ZM9.53,1.13C8.07,1.52,6.78,3.05,6,5.33l-.09.25H9.76V1.07Zm-3.25.8a9.35,9.35,0,0,0-3.8,3.36l-.18.29H4.86l0-.13A10.56,10.56,0,0,1,6.51,2.21Z"/></g></g></svg>