<svg xmlns="http://www.w3.org/2000/svg" viewBox="0 0 16 19.18"><defs><style>.cls-1{fill:#2c3e50;}</style></defs><title>Asset 65</title><g id="Layer_2" data-name="Layer 2"><g id="Layer_2-2" data-name="Layer 2"><path class="cls-1" d="M8,8.11a3.34,3.34,0,0,0,2.47-1,3.34,3.34,0,0,0,1-2.47,3.34,3.34,0,0,0-1-2.47A3.34,3.34,0,0,0,8,1.12a3.34,3.34,0,0,0-2.47,1,3.34,3.34,0,0,0-1,2.47,3.34,3.34,0,0,0,1,2.47A3.34,3.34,0,0,0,8,8.11Z"/><path class="cls-1" d="M14.84,14.82a10.29,10.29,0,0,0-.14-1.09,8.41,8.41,0,0,0-.26-1.07,4.89,4.89,0,0,0-.41-.92,3.17,3.17,0,0,0-.55-.73,2.21,2.21,0,0,0-.72-.45,2.59,2.59,0,0,0-.89-.17l-.22.13-.79.51a5.57,5.57,0,0,1-1.27.57,5.05,5.05,0,0,1-3.17,0A5.57,5.57,0,0,1,5.15,11l-.79-.51-.22-.13a2.59,2.59,0,0,0-.89.17,2.21,2.21,0,0,0-.72.45,3.18,3.18,0,0,0-.55.73,4.91,4.91,0,0,0-.41.92,8.45,8.45,0,0,0-.26,1.07,10.21,10.21,0,0,0-.14,1.09c0,.34,0,.7,0,1.05a2.08,2.08,0,0,0,.6,1.6,2.29,2.29,0,0,0,1.66.58h9.23a2.29,2.29,0,0,0,1.66-.58,2.08,2.08,0,0,0,.6-1.59c0-.36,0-.72,0-1.05Z"/><path class="cls-1" d="M8,9.24a4.47,4.47,0,0,0,3.27-1.35,4.47,4.47,0,0,0,1.35-3.27,4.47,4.47,0,0,0-1.35-3.27A4.47,4.47,0,0,0,8,0,4.47,4.47,0,0,0,4.73,1.35,4.47,4.47,0,0,0,3.38,4.62,4.47,4.47,0,0,0,4.73,7.88,4.47,4.47,0,0,0,8,9.24ZM5.53,2.15A3.34,3.34,0,0,1,8,1.12a3.34,3.34,0,0,1,2.47,1,3.34,3.34,0,0,1,1,2.47,3.34,3.34,0,0,1-1,2.47A3.34,3.34,0,0,1,8,8.11a3.34,3.34,0,0,1-2.47-1,3.34,3.34,0,0,1-1-2.47A3.34,3.34,0,0,1,5.53,2.15Z"/><path class="cls-1" d="M16,14.75a11.42,11.42,0,0,0-.16-1.21,9.54,9.54,0,0,0-.3-1.22,6,6,0,0,0-.5-1.14,4.28,4.28,0,0,0-.76-1,3.33,3.33,0,0,0-1.08-.68,3.75,3.75,0,0,0-1.39-.25,1.41,1.41,0,0,0-.75.32l-.78.5a4.48,4.48,0,0,1-1,.45,3.93,3.93,0,0,1-2.48,0,4.47,4.47,0,0,1-1-.45L5,9.58a1.4,1.4,0,0,0-.75-.32,3.74,3.74,0,0,0-1.38.25,3.33,3.33,0,0,0-1.09.68,4.28,4.28,0,0,0-.76,1,6,6,0,0,0-.5,1.14,9.56,9.56,0,0,0-.3,1.22A11.32,11.32,0,0,0,0,14.75c0,.37,0,.75,0,1.13a3.18,3.18,0,0,0,.95,2.41,3.4,3.4,0,0,0,2.44.89h9.23a3.4,3.4,0,0,0,2.44-.89A3.18,3.18,0,0,0,16,15.88C16,15.49,16,15.11,16,14.75Zm-1.68,2.73a2.29,2.29,0,0,1-1.66.58H3.38a2.29,2.29,0,0,1-1.66-.58,2.08,2.08,0,0,1-.6-1.6c0-.36,0-.71,0-1.05a10.21,10.21,0,0,1,.14-1.09,8.45,8.45,0,0,1,.26-1.07A4.91,4.91,0,0,1,2,11.74,3.18,3.18,0,0,1,2.52,11a2.21,2.21,0,0,1,.72-.45,2.59,2.59,0,0,1,.89-.17l.22.13.79.51a5.57,5.57,0,0,0,1.27.57,5.05,5.05,0,0,0,3.17,0A5.57,5.57,0,0,0,10.85,11l.79-.51.22-.13a2.59,2.59,0,0,1,.89.17,2.21,2.21,0,0,1,.72.45,3.17,3.17,0,0,1,.55.73,4.89,4.89,0,0,1,.41.92,8.41,8.41,0,0,1,.26,1.07,10.29,10.29,0,0,1,.14,1.09h0c0,.34,0,.69,0,1.05A2.08,2.08,0,0,1,14.28,17.47Z"/></g></g></svg>