<svg xmlns="http://www.w3.org/2000/svg" viewBox="0 0 18 17.96"><defs><style>.cls-1{fill:#2c3e50;}</style></defs><title>Asset 48</title><g id="Layer_2" data-name="Layer 2"><g id="Layer_2-2" data-name="Layer 2"><g id="ic_darkearth"><path class="cls-1" d="M9.32,18c1.38-.2,2.58-1.63,3.34-3.75a16.34,16.34,0,0,0-3.34-.39Z"/><path class="cls-1" d="M11.52,17.63l.24-.07.2-.07.24-.09.2-.08.23-.1.2-.09L13,17l.19-.1.21-.12.19-.11.21-.13.18-.12.2-.14.18-.13.19-.15.17-.14.19-.16.16-.15.18-.18.16-.15,0,0a10.81,10.81,0,0,0-2.2-.85,8,8,0,0,1-2.06,3.34l.08,0Z"/><path class="cls-1" d="M18,9.3H14.14a16.68,16.68,0,0,1-.65,4.45,11.19,11.19,0,0,1,2.44,1A9,9,0,0,0,18,9.3Z"/><path class="cls-1" d="M9.32,8.66H13.5a16.09,16.09,0,0,0-.63-4.29,16.94,16.94,0,0,1-3.54.42Z"/><path class="cls-1" d="M9.32,0V4.15a16.35,16.35,0,0,0,3.34-.39C11.9,1.63,10.7.2,9.32,0Z"/><path class="cls-1" d="M9.32,13.17a17,17,0,0,1,3.54.42A16.09,16.09,0,0,0,13.5,9.3H9.32Z"/><path class="cls-1" d="M15.93,3.24a11.19,11.19,0,0,1-2.44,1,16.68,16.68,0,0,1,.65,4.45H18A9,9,0,0,0,15.93,3.24Z"/><path class="cls-1" d="M15.5,2.75l0,0-.16-.15-.18-.18L15,2.24l-.19-.16-.17-.14-.2-.15-.18-.13L14,1.52l-.18-.12-.21-.13-.19-.11L13.24,1,13,.94,12.82.83l-.2-.09L12.4.64,12.2.57,12,.48l-.2-.07L11.52.34l-.2-.06-.08,0A8,8,0,0,1,13.29,3.6,10.8,10.8,0,0,0,15.5,2.75Z"/><path class="cls-1" d="M0,8.66H3.86a16.69,16.69,0,0,1,.65-4.45,11.17,11.17,0,0,1-2.44-1A9,9,0,0,0,0,8.66Z"/><path class="cls-1" d="M8.68,18V13.82a16.35,16.35,0,0,0-3.34.39C6.1,16.33,7.3,17.77,8.68,18Z"/><path class="cls-1" d="M8.68,9.3H4.5a16.09,16.09,0,0,0,.63,4.29,16.93,16.93,0,0,1,3.54-.42Z"/><path class="cls-1" d="M8.68,0C7.3.2,6.1,1.63,5.34,3.75a16.33,16.33,0,0,0,3.34.39Z"/><path class="cls-1" d="M8.68,4.79a16.94,16.94,0,0,1-3.54-.42A16.09,16.09,0,0,0,4.5,8.66H8.68Z"/><path class="cls-1" d="M6.76.26l-.08,0-.2.06L6.24.41,6,.48,5.8.56,5.6.64l-.23.1-.2.09L5,.94,4.76,1l-.21.12-.19.11-.21.13L4,1.52l-.2.14-.18.13-.19.15-.17.14L3,2.24l-.16.15-.18.17-.16.15,0,0a10.8,10.8,0,0,0,2.2.85A8,8,0,0,1,6.76.26Z"/><path class="cls-1" d="M2.68,15.4l.18.18.16.15.19.16.17.14.2.15.18.13.2.14.18.12.21.13.19.11.22.12L5,17l.23.11.2.09.23.1.2.08.24.09.2.07.24.07.2.06.08,0a8,8,0,0,1-2.06-3.34,10.8,10.8,0,0,0-2.2.85l0,0Z"/><path class="cls-1" d="M2.07,14.73a11.19,11.19,0,0,1,2.44-1A16.69,16.69,0,0,1,3.86,9.3H0A9,9,0,0,0,2.07,14.73Z"/></g></g></g></svg>