<?xml version="1.0" encoding="utf-8"?>
<svg xmlns="http://www.w3.org/2000/svg" viewBox="0 0 24 24" fill="#000000"><path style="line-height:normal;text-indent:0;text-align:start;text-decoration-line:none;text-decoration-style:solid;text-decoration-color:#000;text-transform:none;block-progression:tb;isolation:auto;mix-blend-mode:normal" d="M 12 2 C 6.486 2 2 6.486 2 12 C 2 17.228 6.0333906 21.524031 11.150391 21.957031 C 11.356391 21.213031 11.789203 20.546516 12.408203 19.978516 C 12.272203 19.985516 12.138 20 12 20 C 7.589 20 4 16.411 4 12 C 4 7.589 7.589 4 12 4 C 16.16 4 19.585891 7.1928594 19.962891 11.255859 C 20.762891 11.523859 21.44775 12.001766 21.96875 12.634766 C 21.98175 12.423766 22 12.214 22 12 C 22 6.486 17.514 2 12 2 z M 11 6 L 11 11.585938 L 7.2929688 15.292969 L 8.7070312 16.707031 L 13 12.414062 L 13 6 L 11 6 z M 18.5 13 A 2.5 2.5 0 0 0 16 15.5 A 2.5 2.5 0 0 0 18.5 18 A 2.5 2.5 0 0 0 21 15.5 A 2.5 2.5 0 0 0 18.5 13 z M 18.5 20 C 15.496 20 13 21.211031 13 22.957031 L 13 24 L 24 24 L 24 22.957031 C 24 21.211031 21.504 20 18.5 20 z" font-weight="400" font-family="sans-serif" white-space="normal" overflow="visible" fill="#000000"/></svg>
